<?xml version="1.0" encoding="UTF-8" standalone="no"?>
<!DOCTYPE svg PUBLIC "-//W3C//DTD SVG 1.1//EN" "http://www.w3.org/Graphics/SVG/1.1/DTD/svg11.dtd">
<svg width="100%" height="100%" viewBox="0 0 512 512" version="1.1" xmlns="http://www.w3.org/2000/svg" xmlns:xlink="http://www.w3.org/1999/xlink" xml:space="preserve" xmlns:serif="http://www.serif.com/" style="fill-rule:evenodd;clip-rule:evenodd;stroke-linejoin:round;stroke-miterlimit:2;">
    <path d="M464.188,21.844L453.218,23.781C322.7,46.84 193.83,49.9 62.376,25.188C44.529,24.858 57.969,24.912 43.313,24.908L43.689,32.97C43.689,53.04 44.062,72.688 44.876,91.78L45.189,99.28L52.595,100.562C76.41,104.702 94.501,125.255 94.501,150.344C94.501,171.87 81.686,189.704 63.001,197.156L55.875,200L57.281,207.53C79.423,327.95 134.21,423.74 249.25,490.157L253.938,492.877L258.594,490.157C371.38,425.04 426.936,328.466 450,207L451.406,199.594L444.469,196.656C426.214,188.936 413.374,171.363 413.374,150.344C413.374,125.296 431.502,104.727 455.28,100.564L462.656,99.281L463,91.813C463.888,72.606 464.188,53.073 464.188,32.97L464.188,21.843L464.188,21.844ZM445.406,43.906C445.326,57.523 445.069,70.876 444.562,83.969C415.784,92.402 394.687,118.917 394.687,150.343C394.687,176.229 409.164,198.46 430.219,210.28C407.48,323.113 356.802,410 253.905,471.126C148.812,408.765 98.946,322.767 77.062,211.03C98.697,199.33 113.188,176.565 113.188,150.344C113.188,118.914 92.111,92.386 63.312,83.969C62.836,70.969 62.565,57.691 62.469,44.187C138.186,58.14 213.08,62.986 287.812,60.28L196.03,182.25L247.72,182.25L155.844,342.22L249.564,246.156L289,246.156L193.47,393.312L376.563,208.687L286.093,208.687L346.343,146.937L290,146.937L365.938,54.75C392.408,51.988 418.893,48.366 445.406,43.906Z"/>
</svg>
